<svg width="540" height="371" viewBox="0 0 540 371" fill="none" xmlns="http://www.w3.org/2000/svg">
<path d="M342.374 150.788C343.638 150.788 344.663 149.763 344.663 148.499C344.663 147.235 343.638 146.211 342.374 146.211C341.11 146.211 340.086 147.235 340.086 148.499C340.086 149.763 341.11 150.788 342.374 150.788Z" fill="#DEE5FF"/>
<path d="M361.122 148.499C361.122 149.775 360.088 150.788 358.834 150.788C357.558 150.788 356.545 149.753 356.545 148.499C356.545 147.245 357.58 146.211 358.834 146.211C360.11 146.211 361.122 147.245 361.122 148.499Z" fill="#DEE5FF"/>
<path d="M375.294 150.788C376.557 150.788 377.582 149.763 377.582 148.499C377.582 147.235 376.557 146.211 375.294 146.211C374.03 146.211 373.005 147.235 373.005 148.499C373.005 149.763 374.03 150.788 375.294 150.788Z" fill="#DEE5FF"/>
<path d="M394.042 148.499C394.042 149.775 393.007 150.788 391.753 150.788C390.477 150.788 389.465 149.753 389.465 148.499C389.465 147.245 390.499 146.211 391.753 146.211C393.029 146.211 394.042 147.245 394.042 148.499Z" fill="#DEE5FF"/>
<path d="M342.374 163.814C343.638 163.814 344.663 162.79 344.663 161.526C344.663 160.262 343.638 159.237 342.374 159.237C341.11 159.237 340.086 160.262 340.086 161.526C340.086 162.79 341.11 163.814 342.374 163.814Z" fill="#DEE5FF"/>
<path d="M361.122 161.526C361.122 162.802 360.088 163.814 358.834 163.814C357.558 163.814 356.545 162.78 356.545 161.526C356.545 160.272 357.58 159.237 358.834 159.237C360.11 159.237 361.122 160.272 361.122 161.526Z" fill="#DEE5FF"/>
<path d="M375.294 163.814C376.557 163.814 377.582 162.79 377.582 161.526C377.582 160.262 376.557 159.237 375.294 159.237C374.03 159.237 373.005 160.262 373.005 161.526C373.005 162.79 374.03 163.814 375.294 163.814Z" fill="#DEE5FF"/>
<path d="M394.042 161.526C394.042 162.802 393.007 163.815 391.753 163.815C390.477 163.815 389.465 162.78 389.465 161.526C389.465 160.272 390.499 159.238 391.753 159.238C393.029 159.238 394.042 160.272 394.042 161.526Z" fill="#DEE5FF"/>
<path d="M342.374 176.841C343.638 176.841 344.663 175.817 344.663 174.553C344.663 173.289 343.638 172.264 342.374 172.264C341.11 172.264 340.086 173.289 340.086 174.553C340.086 175.817 341.11 176.841 342.374 176.841Z" fill="#DEE5FF"/>
<path d="M361.122 174.553C361.122 175.829 360.088 176.841 358.834 176.841C357.558 176.841 356.545 175.807 356.545 174.553C356.545 173.298 357.58 172.264 358.834 172.264C360.11 172.264 361.122 173.298 361.122 174.553Z" fill="#DEE5FF"/>
<path d="M375.294 176.841C376.557 176.841 377.582 175.817 377.582 174.553C377.582 173.289 376.557 172.264 375.294 172.264C374.03 172.264 373.005 173.289 373.005 174.553C373.005 175.817 374.03 176.841 375.294 176.841Z" fill="#DEE5FF"/>
<path d="M394.042 174.553C394.042 175.829 393.007 176.841 391.753 176.841C390.477 176.841 389.465 175.807 389.465 174.553C389.465 173.298 390.499 172.264 391.753 172.264C393.029 172.264 394.042 173.298 394.042 174.553Z" fill="#DEE5FF"/>
<path d="M342.374 189.868C343.638 189.868 344.663 188.844 344.663 187.58C344.663 186.316 343.638 185.291 342.374 185.291C341.11 185.291 340.086 186.316 340.086 187.58C340.086 188.844 341.11 189.868 342.374 189.868Z" fill="#DEE5FF"/>
<path d="M361.122 187.58C361.122 188.856 360.088 189.868 358.834 189.868C357.558 189.868 356.545 188.834 356.545 187.58C356.545 186.303 357.58 185.291 358.834 185.291C360.11 185.291 361.122 186.303 361.122 187.58Z" fill="#DEE5FF"/>
<path d="M375.294 189.868C376.557 189.868 377.582 188.843 377.582 187.58C377.582 186.316 376.557 185.291 375.294 185.291C374.03 185.291 373.005 186.316 373.005 187.58C373.005 188.843 374.03 189.868 375.294 189.868Z" fill="#DEE5FF"/>
<path d="M394.042 187.58C394.042 188.856 393.007 189.868 391.753 189.868C390.477 189.868 389.465 188.834 389.465 187.58C389.465 186.303 390.499 185.291 391.753 185.291C393.029 185.291 394.042 186.303 394.042 187.58Z" fill="#DEE5FF"/>
<path d="M307.804 56.5848C307.386 56.5848 306.968 56.3427 306.792 55.9246L289.76 17.6141L275.369 20.6288C274.753 20.7608 274.181 20.3647 274.071 19.7706C273.939 19.1765 274.335 18.5823 274.929 18.4723L290.2 15.2816C290.707 15.1716 291.213 15.4356 291.433 15.9197L308.465 54.2303L356.633 44.174L361.21 7.09578C361.276 6.50164 361.826 6.06155 362.443 6.12756C363.037 6.19358 363.477 6.7437 363.389 7.35984L358.724 45.2302C358.658 45.6924 358.328 46.0664 357.866 46.1765L308.046 56.5628C307.958 56.5628 307.892 56.5848 307.804 56.5848Z" fill="#FF6600" fill-opacity="0.08"/>
<path d="M303.294 45.3403L309.631 59.5994L303.294 45.3403Z" fill="white"/>
<path d="M309.631 60.6999C309.213 60.6999 308.817 60.4578 308.619 60.0397L302.281 45.7805C302.039 45.2304 302.281 44.5703 302.831 44.3282C303.382 44.0862 304.042 44.3282 304.284 44.8783L310.621 59.1375C310.863 59.6876 310.621 60.3478 310.071 60.5898C309.939 60.6559 309.785 60.6999 309.631 60.6999Z" fill="#FF6600" fill-opacity="0.08"/>
<path d="M321.161 65.4747C322.107 69.9637 319.224 74.3647 314.713 75.3109C310.224 76.2571 305.823 73.3745 304.877 68.8635C303.931 64.3745 306.814 59.9735 311.325 59.0273C315.814 58.1031 320.215 60.9857 321.161 65.4747Z" fill="white"/>
<path d="M313.019 76.587C308.662 76.587 304.745 73.5283 303.821 69.1053C303.315 66.6407 303.777 64.1322 305.163 62.0197C306.55 59.9072 308.662 58.4769 311.105 57.9708C313.569 57.4647 316.078 57.9268 318.19 59.3131C320.303 60.6994 321.733 62.8119 322.239 65.2544C322.745 67.719 322.283 70.2275 320.897 72.34C319.511 74.4525 317.398 75.8828 314.956 76.3889C314.295 76.5209 313.657 76.587 313.019 76.587ZM313.041 59.9733C312.557 59.9733 312.051 60.0173 311.545 60.1273C309.652 60.5234 308.046 61.6236 306.99 63.23C305.934 64.8363 305.582 66.7728 305.956 68.6432C306.77 72.5381 310.599 75.0466 314.494 74.2324C316.386 73.8363 317.992 72.7361 319.049 71.1297C320.105 69.5234 320.457 67.587 320.083 65.7165C319.687 63.8241 318.586 62.2178 316.98 61.1615C315.792 60.3693 314.427 59.9733 313.041 59.9733Z" fill="#FF6600" fill-opacity="0.08"/>
<path d="M365.589 56.2106C366.535 60.6996 363.653 65.1005 359.142 66.0468C354.653 66.993 350.252 64.1103 349.306 59.5993C348.359 55.1103 351.242 50.7093 355.753 49.7631C360.264 48.8389 364.665 51.7216 365.589 56.2106Z" fill="white"/>
<path d="M357.469 67.3231C353.112 67.3231 349.173 64.2644 348.249 59.8414C347.193 54.7583 350.45 49.7632 355.533 48.707C357.997 48.2009 360.506 48.663 362.618 50.0493C364.731 51.4356 366.161 53.548 366.667 55.9906C367.173 58.4551 366.711 60.9637 365.325 63.0762C363.939 65.1886 361.826 66.6189 359.384 67.1251C358.745 67.2571 358.107 67.3231 357.469 67.3231ZM357.491 50.6874C357.007 50.6874 356.501 50.7314 355.995 50.8414C352.1 51.6556 349.591 55.4845 350.406 59.3793C351.22 63.2742 355.049 65.7608 358.943 64.9686C360.836 64.5725 362.442 63.4722 363.498 61.8659C364.555 60.2595 364.907 58.3231 364.533 56.4527C364.137 54.5603 363.036 52.9539 361.43 51.8977C360.22 51.0835 358.855 50.6874 357.491 50.6874Z" fill="#FF6600" fill-opacity="0.08"/>
<path d="M321.161 65.4747L349.327 59.5994L321.161 65.4747Z" fill="white"/>
<path d="M321.161 66.5749C320.655 66.5749 320.193 66.2228 320.083 65.6947C319.951 65.1005 320.347 64.5064 320.941 64.3964L349.107 58.5211C349.701 58.389 350.296 58.7851 350.406 59.3793C350.538 59.9734 350.141 60.5675 349.547 60.6776L321.381 66.5529C321.315 66.5749 321.227 66.5749 321.161 66.5749Z" fill="#FF6600" fill-opacity="0.08"/>
<path d="M361.562 13.081L295.415 26.878L361.562 13.081Z" fill="white"/>
<path d="M295.415 27.9782C294.909 27.9782 294.447 27.6261 294.337 27.098C294.205 26.5039 294.601 25.9098 295.195 25.7997L361.342 12.0027C361.936 11.8706 362.53 12.2667 362.64 12.8609C362.772 13.455 362.376 14.0491 361.782 14.1592L295.636 27.9562C295.57 27.9782 295.503 27.9782 295.415 27.9782Z" fill="#FF6600" fill-opacity="0.08"/>
<path d="M123.316 196.998H220.357C222.734 196.998 224.67 195.061 224.67 192.685V41.8194C224.67 39.4429 222.734 37.5065 220.357 37.5065H123.316C120.939 37.5065 119.003 39.4429 119.003 41.8194V192.707C119.003 195.083 120.917 196.998 123.316 196.998Z" fill="white"/>
<path d="M220.357 198.098H123.316C120.323 198.098 117.902 195.678 117.902 192.685V41.8193C117.902 38.8266 120.323 36.4061 123.316 36.4061H220.357C223.35 36.4061 225.77 38.8266 225.77 41.8193V192.707C225.77 195.678 223.328 198.098 220.357 198.098ZM123.316 38.6066C121.555 38.6066 120.103 40.0369 120.103 41.8193V192.707C120.103 194.489 121.555 195.92 123.316 195.92H220.357C222.118 195.92 223.57 194.489 223.57 192.707V41.8193C223.57 40.0369 222.118 38.6066 220.357 38.6066H123.316Z" fill="#C9D5FF"/>
<path d="M170.229 129.773C157.115 129.641 146.398 140.159 146.244 153.252C146.112 166.367 156.63 177.083 169.723 177.237C182.838 177.369 193.555 166.851 193.709 153.758C193.863 140.643 183.344 129.905 170.229 129.773Z" fill="#FF6600" fill-opacity="0.08"/>
<path d="M169.261 154.793L169.569 125.944C185.237 126.406 197.736 139.323 197.582 155.079L169.261 154.793Z" fill="#FF6600" fill-opacity="0.08"/>
<path d="M168.359 155.673L168.689 125.042L169.592 125.064C185.677 125.526 198.616 138.993 198.462 155.101V155.981L168.359 155.673ZM170.142 153.934L196.658 154.22C196.372 139.763 184.841 127.77 170.428 126.89L170.142 153.934Z" fill="white"/>
<path d="M189.049 106.903H206.147V73.7417H189.049V106.903Z" fill="#FF6600" fill-opacity="0.08"/>
<path d="M189.11 99.3841H172.013V106.888H189.11V99.3841Z" fill="#FFEDE0"/>
<path d="M149.98 106.905H167.078V77.7267H149.98V106.905Z" fill="#FF6600" fill-opacity="0.08"/>
<path d="M150.052 89.8339H132.954V106.91H150.052V89.8339Z" fill="#FF6600" fill-opacity="0.12"/>
<path d="M220.115 108.736H123.756V106.536H220.115V107.636V108.736Z" fill="#FF6600" fill-opacity="0.12"/>
<path d="M241.768 361.661V355.961H231.271V358.382V361.661L234.968 363.861H238.247L241.768 361.661Z" fill="#FFCEC8"/>
<path d="M241.768 361.661V366.216L215.098 366.15V365.776C215.098 364.785 215.692 363.927 216.594 363.597L231.272 358.36L233.516 361.066C233.516 361.088 236.971 363.685 241.768 361.661Z" fill="#544AC3"/>
<path d="M215.098 366.15V367.822H241.768V366.216L215.098 366.15Z" fill="#544AC3"/>
<path d="M295.419 360.29H306.113V355.978H295.419V360.29Z" fill="#FFCEC8"/>
<path d="M293.281 365.159H307.826L306.682 360.274H295.02L293.281 365.159Z" fill="#544AC3"/>
<path d="M292.313 367.8H308.817V365.886C308.817 365.159 308.223 364.587 307.518 364.587H293.633C292.907 364.587 292.335 365.181 292.335 365.886V367.8H292.313Z" fill="#544AC3"/>
<path d="M292.313 366.106V367.778L308.795 367.8V366.194L292.313 366.106Z" fill="#544AC3"/>
<path d="M300.301 182.475L309.543 355.961H292.797L276.337 215.878C276.161 214.206 274.797 212.952 273.169 212.952C271.628 212.952 270.308 214.096 270.044 215.658L244.584 355.961H228.851L246.631 182.475H300.301Z" fill="#544AC3"/>
<path d="M272.135 92.6949C278.098 92.6949 282.939 87.8538 282.939 81.8905V71.7682H261.308V81.8905C261.33 87.8538 266.171 92.6949 272.135 92.6949Z" fill="#FFCEC8"/>
<path d="M281.706 82.2423C281.706 83.8047 281.992 85.081 283.511 85.081C285.029 85.081 287.207 83.8047 287.207 82.2423C287.207 80.68 285.975 79.4037 284.457 79.4037C282.939 79.4037 281.706 80.68 281.706 82.2423Z" fill="#FFCEC8"/>
<path d="M263.091 82.2423C263.091 83.8047 262.805 85.081 261.286 85.081C259.768 85.081 257.589 83.8047 257.589 82.2423C257.589 80.68 258.822 79.4037 260.34 79.4037C261.858 79.4037 263.091 80.68 263.091 82.2423Z" fill="#FFCEC8"/>
<path d="M280.871 88.2277L282.565 99.5162C282.565 99.5162 279.11 105.238 271.122 105.105C263.135 104.951 262.562 99.5162 262.562 99.5162L263.069 87.8096L280.871 88.2277Z" fill="#FFCEC8"/>
<path d="M280.871 88.2277C280.871 88.2277 279.088 92.6067 272.575 92.6947C266.061 92.7828 263.091 87.8096 263.091 87.8096C263.091 87.8096 264.895 92.7607 270.352 93.905C271.915 94.2351 273.543 94.103 275.083 93.6629C277.328 93.0028 280.342 91.5285 280.871 88.2277Z" fill="#FFBDB5"/>
<path d="M282.939 79.888V72.9345C282.939 72.9345 278.89 72.2963 275.567 75.7071C272.222 79.1178 261.33 75.201 261.33 75.201V79.602C261.33 79.602 258.953 78.9638 257.985 80.7682C257.985 80.7682 258.447 78.7658 256.643 77.0494C254.839 75.311 256.115 69.5017 261.33 68.7976C261.33 68.7976 259.174 61.4699 265.753 61.1839C272.354 60.8978 275.303 65.4968 275.303 65.4968C275.303 65.4968 278.318 60.2817 281.707 62.3721C285.117 64.4626 288.66 67.6533 286.746 73.8147L285.425 79.602C285.447 79.602 283.775 79.0078 282.939 79.888Z" fill="#384B61"/>
<path d="M244.694 172.837L243.594 195.216L221.655 161.482C219.389 156.157 219.609 150.106 222.249 144.934L239.985 107.284L246.301 143.482L237.961 154.199L244.694 172.837Z" fill="#FF7235"/>
<path d="M281.288 95.2914L308.156 106.844L301.687 207.494H294.359C286.57 207.494 280.32 201.047 280.584 193.257L283.599 98.5262L281.288 95.2914Z" fill="#FF7235"/>
<path d="M263.355 95.2914L261.308 98.5262L264.961 193.169C265.269 200.981 258.998 207.494 251.186 207.494H243.682L239.963 107.262L263.355 95.2914Z" fill="#FF7235"/>
<path d="M263.354 95.2914H281.288L272.376 104.864L263.354 95.2914Z" fill="#384B61"/>
<path d="M263.355 95.2917L272.509 100.969L281.289 95.2917L283.577 98.5264L281.047 187.382H264.411L261.308 98.5264L263.355 95.2917Z" fill="#FF7235" fill-opacity="0.19"/>
<path d="M281.289 95.2914L281.663 96.9858L272.509 100.969L263.223 96.5677L263.355 95.2914H281.289Z" fill="#FFCEC8"/>
<path d="M262.915 91.0443L272.597 101.497L267.734 109.11L260.736 100.132L258.8 97.3817L262.915 91.0443Z" fill="#FF7235"/>
<path d="M281.421 91.1547L272.443 101.497L277.306 109.111L284.303 100.133L286.306 97.206L281.421 91.1547Z" fill="#FF7235"/>
<path d="M242.714 148.939C242.252 148.939 241.878 148.587 241.834 148.125L239.897 119.497C239.875 119.013 240.227 118.594 240.711 118.55C241.239 118.484 241.614 118.88 241.658 119.365L243.594 147.993C243.616 148.477 243.264 148.895 242.78 148.939C242.758 148.939 242.736 148.939 242.714 148.939Z" fill="#E34934"/>
<path d="M318.873 204.238L321.14 210.993L341.494 211.037L330.778 207.34L328.621 202.059L318.873 204.238Z" fill="#FFCEC8"/>
<path d="M185.435 219.641H356.039C358.438 219.641 360.374 217.705 360.374 215.306C360.374 212.908 358.438 210.971 356.039 210.971H185.435C183.037 210.971 181.1 212.908 181.1 215.306C181.1 217.705 183.037 219.641 185.435 219.641Z" fill="#FF7235"/>
<path d="M186.293 368.262C186.249 368.262 186.183 368.262 186.139 368.24C185.545 368.152 185.127 367.602 185.215 366.986L206.472 220.103C206.56 219.509 207.132 219.069 207.726 219.179C208.32 219.267 208.738 219.817 208.65 220.433L187.394 367.316C187.306 367.866 186.844 368.262 186.293 368.262Z" fill="#544AC3"/>
<path d="M360.198 369.076C359.67 369.076 359.208 368.702 359.12 368.152L335.266 220.455C335.178 219.861 335.575 219.289 336.169 219.201C336.785 219.091 337.335 219.509 337.423 220.103L361.276 367.8C361.364 368.394 360.968 368.966 360.374 369.054C360.33 369.076 360.264 369.076 360.198 369.076Z" fill="#544AC3"/>
<path d="M323.164 161.24C322.306 154.265 308.156 106.844 308.156 106.844L301.511 143.482L307.232 163.595L317.046 205.866L331.9 203.556L323.164 161.24Z" fill="#FF7235"/>
<path d="M303.756 147.223C303.712 147.223 303.69 147.223 303.668 147.223C303.184 147.179 302.831 146.739 302.897 146.255L305.868 119.343C305.912 118.859 306.396 118.506 306.836 118.572C307.32 118.616 307.673 119.057 307.607 119.541L304.592 146.453C304.57 146.893 304.196 147.223 303.756 147.223Z" fill="#E34934"/>
<path d="M290.178 211.037H270.506V207.296H286.437C288.506 207.274 290.178 208.969 290.178 211.037Z" fill="#293545"/>
<path d="M272.882 211.037H216.11L207.088 182.585C206.274 180.054 208.166 177.458 210.829 177.458H259.349C261.066 177.458 262.584 178.558 263.09 180.208L272.882 211.037Z" fill="#293545"/>
<path d="M234.308 196.228C234.924 198.01 236.75 199.001 238.379 198.428C240.007 197.856 240.843 195.964 240.227 194.181C239.611 192.399 237.785 191.409 236.156 191.981C234.528 192.553 233.714 194.445 234.308 196.228Z" fill="#44576E"/>
<path d="M117.858 348.611L126.506 363.464L131.831 363.597L135.462 365.709C135.858 365.929 136.122 366.347 136.166 366.787C136.232 367.469 135.748 367.997 135.088 367.975L125.67 367.733L118.98 357.479C118.98 357.479 117.572 356.555 117.462 357.963C117.374 359.085 118.012 364.433 118.276 366.611C118.342 367.117 118.012 367.535 117.55 367.513C117.11 367.491 116.714 367.117 116.648 366.633L115.349 356.819C115.349 356.819 112.313 350.129 117.858 348.611Z" fill="#FF7235"/>
<path d="M126.507 363.465L131.832 363.597L126.551 340.316L117.859 348.611L126.507 363.465Z" fill="#FFCEC8"/>
<path d="M88.3715 258.985C89.4718 262.88 110.839 324.032 117.858 348.611L127.012 342.362C127.012 342.362 113.479 259.624 113.039 258.853L88.3715 258.985Z" fill="#FFCEC8"/>
<path d="M77.4131 348.545L85.951 363.465L91.2762 363.641L94.885 365.775C95.2811 366.017 95.5451 366.413 95.5672 366.854C95.6332 367.536 95.1491 368.064 94.4889 368.042L85.0708 367.712L78.4474 357.413C78.4474 357.413 77.039 356.467 76.929 357.876C76.841 358.998 77.4351 364.345 77.6772 366.545C77.7432 367.052 77.4131 367.47 76.951 367.448C76.5109 367.426 76.1148 367.03 76.0488 366.545L74.8165 356.731C74.8165 356.731 71.8459 350.02 77.4131 348.545Z" fill="#FF7235"/>
<path d="M85.929 363.465L91.2542 363.641L87.4914 340.316L77.4131 348.545L85.929 363.465Z" fill="#FFCEC8"/>
<path d="M88.6136 295.602C88.6356 295.558 88.6356 295.514 88.6356 295.492C88.5696 278.152 94.2249 251.9 89.1197 247.785L66.6748 258.721C66.8728 260.636 68.8973 275.819 71.2518 293.929C71.2518 294.039 71.2518 294.127 71.2518 294.237L88.5916 295.668C88.6136 295.624 88.6136 295.624 88.6136 295.602Z" fill="#FFCEC8"/>
<path d="M87.4914 340.316C88.8557 314.24 87.5134 316.616 88.7676 293.929L71.3618 294.369C72.7701 314.24 76.797 335.254 77.3911 348.545L87.4914 340.316Z" fill="#FFCEC8"/>
<path d="M55.0783 279.362C59.5673 274.125 58.8632 269.13 60.4695 261.868C63.6162 247.697 63.6822 233.086 64.5184 218.584C65.3546 204.105 67.3791 189.23 74.5967 176.643C75.2128 175.565 75.917 174.465 77.0172 173.87C78.4255 173.122 80.1419 173.364 81.7043 173.65C86.7434 174.553 100.937 176.445 100.937 176.445C100.937 176.445 104.589 205.91 107.538 216.054C107.538 216.054 117.726 247.763 119.509 269.614C119.509 269.614 105.58 262.22 77.5453 278.152C77.5453 278.152 68.8314 281.893 60.1395 280.528L55.0783 279.362Z" fill="#FF7235"/>
<path d="M83.8169 274.851L87.2936 263.584L89.4281 275.335L83.8169 274.851Z" fill="#FFCEC8"/>
<path d="M104.875 91.5504C103.555 87.7656 102.037 86.4233 101.244 84.8389L84.2346 85.169L82.1002 99.2741L79.1075 119.607L93.4107 119.805L93.9388 111.223C93.9388 111.223 94.0488 111.245 94.2249 111.289C95.3471 111.619 96.5354 111.685 97.6576 111.971C98.9119 112.279 100.144 112.697 101.442 112.785C101.817 112.807 102.213 112.807 102.521 112.587C102.719 112.433 102.829 112.191 102.939 111.949C104.083 109.396 104.809 106.558 104.941 103.741C105.139 99.4502 104.875 91.5504 104.875 91.5504Z" fill="#FFCEC8"/>
<path d="M89.5161 101.805C87.7997 102.333 86.2593 102.223 85.6212 100.176C84.9831 98.1298 85.5112 94.9171 87.2276 94.389C88.9439 93.8609 90.8364 95.0931 91.4745 97.1396C92.1126 99.186 91.2325 101.276 89.5161 101.805Z" fill="#FFCEC8"/>
<path d="M78.0294 92.9367C78.0294 92.9367 77.6113 104.401 65.7067 112.301C53.824 120.201 55.0783 141.546 74.0245 144.494L73.6284 125.944C73.6284 125.944 75.0587 119.761 79.3057 118.264C79.3057 118.264 87.4035 116.482 87.9976 105.413C87.9976 105.413 86.7433 100.682 91.7825 99.0981C96.8436 97.5137 99.7482 93.2888 99.1101 88.0736L88.4377 90.6482L78.0294 92.9367Z" fill="#FF7235"/>
<path d="M73.2318 127.705L74.6181 157.301L69.733 177.348L100.958 176.467C100.716 170.702 104.061 147.465 104.061 147.465L105.623 146.255C107.537 144.78 109.144 140.203 109.144 140.203L98.7135 126.626C98.7135 126.626 95.9629 122.159 90.9238 122.644L73.2318 127.705Z" fill="#384B61"/>
<path d="M93.3667 119.387L98.7359 126.604C98.7359 126.604 94.467 129.839 90.9462 122.621C90.9462 122.621 90.242 120.641 88.5036 119.651L93.3667 119.387Z" fill="#FFCEC8"/>
<path d="M131.765 148.763L129.081 143.482L94.0489 161.13L96.4254 169.272C97.2836 172.242 100.826 173.431 103.313 171.604L131.765 148.763Z" fill="#FFCEC8"/>
<path d="M88.0635 142.932C86.9192 142.888 85.929 142.646 84.7847 142.514C81.0439 142.074 84.1686 144.692 81.286 147.201L97.3715 171.032L110.751 166.191L97.3495 140.467C94.1808 142.25 91.4962 143.064 88.0635 142.932Z" fill="#FFCEC8"/>
<path d="M80.296 117.89C76.6872 118.77 73.4525 122.071 73.2105 125.922C73.0784 127.946 73.6065 129.971 74.1347 131.929C75.2129 135.934 76.2911 139.917 77.3694 143.922C77.9195 145.924 78.4476 147.949 78.9757 149.951C79.1298 150.501 80.076 152.592 79.7019 153.054C82.9146 148.895 87.9977 145.946 93.2789 146.937C94.4232 147.157 95.7655 147.751 96.9097 148.037C101.267 149.071 99.9904 148.565 103.577 146.188C101.553 143.108 103.203 140.159 101.179 137.056C99.4403 134.438 97.6139 131.841 95.8535 129.267C92.5087 124.36 89.34 117.45 82.2985 117.648C81.6163 117.626 80.9342 117.736 80.296 117.89Z" fill="#384B61"/>
<path d="M102.301 147.795C102.235 147.861 102.147 147.905 102.059 147.927C101.707 148.037 101.332 147.839 101.222 147.487L97.5697 135.89C96.4254 132.237 94.687 128.805 92.4425 125.724L89.5159 121.675C89.2958 121.389 89.3618 120.949 89.6699 120.751C89.956 120.531 90.3741 120.597 90.5941 120.905L93.5208 124.954C95.8533 128.167 97.6357 131.709 98.8459 135.516L102.499 147.113C102.565 147.355 102.477 147.619 102.301 147.795Z" fill="#212B38"/>
<path d="M78.0292 92.9368C78.0292 92.9368 77.4571 82.9245 85.995 80.2619C94.5109 77.5993 105.425 80.0199 105.139 88.9539C104.853 97.9099 98.8018 103.829 87.9974 105.414L80.2957 108.01L78.0292 92.9368Z" fill="#FF7235"/>
<path d="M129.081 143.504L131.413 140.841C131.413 140.841 131.853 138.971 133.746 137.981C135.044 137.32 137.025 136.22 138.125 135.604C138.587 135.34 139.159 135.516 139.401 135.978L138.587 136.858L145.519 133.866C145.827 133.734 146.179 133.888 146.267 134.218C146.333 134.46 146.245 134.724 146.025 134.856L140.986 137.783C141.052 137.805 141.448 137.959 141.624 138.421C141.778 138.861 141.602 139.213 141.58 139.279C141.47 139.367 141.338 139.455 141.228 139.543C141.514 139.653 141.712 139.895 141.734 140.181C141.756 140.401 141.646 140.577 141.602 140.621C141.404 140.841 141.228 141.083 141.03 141.303C141.316 141.259 141.602 141.391 141.734 141.655C141.844 141.919 141.8 142.206 141.58 142.404C140.919 143.394 140.259 144.362 139.599 145.352L134.142 147.333L131.765 148.741L129.081 143.504Z" fill="#FFCEC8"/>
<path d="M134.142 139.323C134.076 139.323 134.032 139.301 133.988 139.257C133.9 139.169 133.922 139.037 134.01 138.949C134.054 138.905 134.978 138.091 136.408 137.628C137.751 137.188 138.367 136.726 138.367 136.726C138.455 136.638 138.609 136.66 138.675 136.77C138.741 136.858 138.741 137.012 138.631 137.078C138.609 137.1 137.949 137.584 136.518 138.047C135.176 138.487 134.274 139.257 134.274 139.279C134.252 139.301 134.186 139.323 134.142 139.323Z" fill="#FF9D91"/>
<path d="M139.247 139.125C139.181 139.125 139.093 139.081 139.071 139.015C139.005 138.905 139.027 138.773 139.137 138.707L140.876 137.584C140.986 137.518 141.118 137.54 141.184 137.65C141.25 137.761 141.228 137.893 141.118 137.959L139.379 139.081C139.335 139.125 139.291 139.125 139.247 139.125Z" fill="#FF9D91"/>
<path d="M139.621 141.259C139.555 141.259 139.511 141.237 139.467 141.193C139.379 141.105 139.379 140.973 139.467 140.885L141.073 139.389C141.161 139.301 141.293 139.301 141.381 139.411C141.469 139.499 141.469 139.631 141.381 139.719L139.775 141.215C139.731 141.259 139.665 141.259 139.621 141.259Z" fill="#FF9D91"/>
<path d="M139.599 143.416C139.555 143.416 139.511 143.394 139.467 143.372C139.379 143.306 139.357 143.152 139.423 143.064L140.853 141.215C140.919 141.127 141.051 141.105 141.161 141.171C141.249 141.237 141.271 141.391 141.205 141.479L139.775 143.328C139.731 143.372 139.665 143.416 139.599 143.416Z" fill="#FF9D91"/>
<path d="M375.337 122.401L371.707 115.844L372.081 111.773C372.147 111.025 371.993 110.299 371.619 109.638L369.22 105.502L369.77 117.626L366.293 117.846L364.489 105.237L364.071 105.436C362.201 106.294 361.1 108.252 361.32 110.277L361.65 113.357C361.738 114.215 362.069 115.03 362.575 115.712L366.007 122.159L369.264 129.509L375.337 122.401Z" fill="#FFCEC8"/>
<path d="M370.584 117.824L369.11 101.716C369.11 100.88 368.45 100.176 367.613 100.11L365.699 99.9339C364.643 99.8459 363.763 100.748 363.917 101.804L366.271 117.868L370.584 117.824Z" fill="#384B61"/>
<path d="M410.236 151.756L401.875 160.14C400.07 161.944 397.782 163.154 395.317 163.616C391.29 164.364 387.153 163.088 384.227 160.14L383.787 159.699C382.73 158.643 381.872 157.433 381.234 156.069L363.916 123.501L373.906 119.188L393.315 144.604L405.021 130.433C405.043 130.455 410.17 146.519 410.236 151.756Z" fill="#384B61"/>
<path d="M400.18 98.4161C401.346 97.2058 401.655 95.5335 401.677 94.2572C401.589 93.8611 401.5 93.487 401.412 93.0689C399.278 89.7902 399.938 86.8415 399.938 86.8415L401.611 82.1765L421.613 78.4137C422.889 79.6239 425.09 93.465 425.09 93.465L429.755 111.399L414.439 114.282L413.647 105.744C413.647 105.744 408.344 107.35 407.772 107.526C404.449 108.516 403.261 100.793 403.195 100.529V100.573C399.872 100.947 400.18 98.4161 400.18 98.4161Z" fill="#FFCEC8"/>
<path d="M417.608 97.9978C419.853 98.614 421.855 98.4159 422.581 95.7533C423.329 93.0907 422.515 88.9318 420.293 88.3157C418.048 87.6995 415.65 89.3499 414.902 92.0345C414.153 94.7191 415.364 97.3817 417.608 97.9978Z" fill="#FFCEC8"/>
<path d="M409.687 89.1959C408.322 87.6996 407.64 85.5871 407.882 83.5847C406.518 85.191 404.692 86.3793 402.667 86.9514C399.564 87.8316 396.99 86.3133 396.198 83.1666C395.648 80.9221 396.616 78.4795 398.266 76.8732C399.938 75.2668 402.183 74.4086 404.471 73.9905C406.034 73.7045 407.662 73.5944 409.159 73.0003C410.897 72.2961 411.711 70.7778 413.031 69.5455C416.09 66.6629 421.437 67.125 424.452 70.0516C427.467 72.9783 428.237 77.7754 426.96 81.7802C426.74 82.4844 426.454 83.1666 426.41 83.9147C426.366 84.6629 426.608 85.4551 427.203 85.8512C428.171 86.4893 429.733 86.0052 430.415 86.9294C430.965 87.6776 430.459 88.7558 429.755 89.3499C429.051 89.9441 428.149 90.3622 427.643 91.1323C427.026 92.0565 427.159 93.3988 427.951 94.191C428.743 94.9832 430.085 95.0932 431.009 94.4551C431.802 96.8756 430.283 99.8023 427.863 100.572C425.42 101.343 422.515 99.7803 421.789 97.3377C421.415 96.0834 421.569 94.7191 421.415 93.3988C421.261 92.1005 420.623 90.6702 419.369 90.2741C417.63 89.702 416.376 91.3964 414.726 91.5064C412.899 91.6164 410.853 90.4722 409.687 89.1959Z" fill="#384B61"/>
<path d="M404.097 99.4064C404.097 99.4064 404.119 99.4284 404.141 99.4944C404.251 99.7365 404.405 100.353 404.428 101.211L405.022 101.585L405.748 100.903L404.097 99.4064Z" fill="#FFCEC8"/>
<path d="M495.989 346.191L487.275 332.35L476.273 340.008L486.791 354.817L495.989 346.191Z" fill="#FFCEC8"/>
<path d="M490.488 337.433L495.989 346.191L486.791 354.817L480.696 346.235L490.488 337.433Z" fill="#FFCEC8"/>
<path d="M476.317 367.822C476.845 368.064 477.461 368.02 477.924 367.668L496.914 353.585L497.068 353.453C497.75 352.881 498.19 352.067 498.3 351.186C498.388 350.372 498.168 349.536 497.728 348.854L496.254 346.675L494.295 343.617C494.295 343.617 493.349 349.932 490.202 348.018C486.924 346.037 484.195 351.186 484.195 351.186L475.503 365.952C475.261 366.678 475.613 367.492 476.317 367.822Z" fill="#544AC3"/>
<path d="M403.591 193.587C403.591 193.587 430.305 197.592 440.956 193.147L445.423 192.751L455.809 274.389L433.298 286.822L403.591 193.587Z" fill="#293545"/>
<path d="M454.731 272.915L492.447 339.568L477.792 350.526L433.276 286.844L454.731 272.915Z" fill="#293545"/>
<path d="M398.992 345.377L412.833 345.619L413.911 358.844L413.757 361.11L413.251 361.176C411.975 363.663 409.048 365.093 406.166 364.213L401.237 362.739L398.992 345.377Z" fill="#FFCEC8"/>
<path d="M385.173 367.162C385.459 367.69 385.987 367.998 386.581 367.976L411.403 367.602H411.601C412.481 367.536 414.241 367.14 414.858 366.479C415.408 365.863 413.933 358.051 413.933 358.051C413.933 358.051 409.466 362.629 408.036 359.218C406.54 355.697 401.303 358.272 401.303 358.272L385.613 365.159C384.975 365.621 384.777 366.479 385.173 367.162Z" fill="#544AC3"/>
<path d="M445.4 192.773L423.792 256.279L416.134 282.003L390.674 274.697L404.977 178.734C413.273 183.773 433.32 189.56 445.4 192.773Z" fill="#314154"/>
<path d="M415.342 354.025L396.858 355.015L390.696 274.697L416.134 282.003L415.342 354.025Z" fill="#314154"/>
<path d="M407.354 114.369C409.862 111.883 411.293 111.443 414.241 109.044C414.263 109.022 414.263 109.022 414.285 109C414.593 108.736 414.901 108.472 415.232 108.23L430.635 108.296C438.161 109.33 444.542 114.479 446.963 121.697C448.987 127.77 448.283 135.824 448.591 145.814C449.361 169.932 455.985 214.03 455.985 214.03C455.985 214.03 431.471 221.973 415.144 212.005C408.278 207.802 407.354 114.369 407.354 114.369Z" fill="#384B61"/>
<path d="M401.611 192.619C404.912 197.526 407.09 200.475 412.019 202.741C408.213 169.008 407.068 140.511 414.814 109C403.482 119.497 402.777 135.626 401.589 148.015L401.611 192.619Z" fill="#544AC3"/>
<path d="M431.207 107.548C431.207 107.548 426.674 115.404 416.486 116.9C412.877 117.428 410.127 114.326 411.997 111.773C412.855 110.607 413.494 109.132 415.408 107.416L423.22 104.511L431.207 107.548Z" fill="#FFCEC8"/>
<path d="M455.127 145.506L447.975 121.983C445.709 116.614 439.701 110.739 433.87 110.585L427.137 114.083L431.802 154.749C432.902 153.494 439.635 148.631 445.819 147.421C451.782 146.255 455.127 145.506 455.127 145.506Z" fill="#384B61"/>
<path d="M430.041 104.533L432.066 109C432.066 109 414.286 136.287 414.286 159.238V120.377L414.77 113.445L430.041 104.533Z" fill="#384B61"/>
<path d="M418.533 119.211L412.943 113.666L430.041 104.533L431.846 108.516L418.533 119.211Z" fill="white"/>
<path d="M412.943 113.665L412.833 117.714L415.936 116.592L412.943 113.665Z" fill="#384B61"/>
<path d="M409.247 115.69C409.247 115.69 397.892 127.462 393.227 146.387C392.457 149.511 390.366 152.218 387.418 153.516C385.393 154.418 382.929 154.682 380.376 153.098L375.051 155.871L379.32 160.25C379.32 160.25 396.374 163.132 398.816 149.885C401.259 136.638 407.332 121.763 412.855 117.714L409.247 115.69Z" fill="#FF7235"/>
<path d="M412.944 113.665L411.403 112.719L409.247 115.69L407.949 117.296L411.337 119.057L412.834 117.714L412.944 113.665Z" fill="#FF462E"/>
<path d="M423.506 148.455L418.973 159.04L399.586 142.294C399.322 141.986 399.278 141.48 399.454 141.084C399.653 140.599 400.137 140.379 400.533 140.555C399.609 139.763 398.706 138.993 397.782 138.201C397.76 138.201 397.452 137.629 397.65 137.013C397.848 136.485 398.354 136.11 398.882 136.22C398.53 135.956 398.178 135.67 397.826 135.406C397.54 134.878 397.54 134.13 397.892 133.58C398.2 133.03 398.684 132.854 399.234 132.986C399.741 133.404 400.269 133.8 400.753 134.196L404.053 136.793L401.589 133.228C401.215 132.656 401.149 132.084 401.589 131.511C402.029 130.983 402.601 130.983 403.085 131.423C405.374 133.734 407.882 135.626 410.193 137.937L409.313 135.978C409.093 135.56 408.983 135.054 409.005 134.548C409.049 133.8 409.335 133.118 409.775 132.656L412.173 136.529L414.506 140.379C414.99 141.194 415.298 141.15 415.21 142.184L423.506 148.455Z" fill="#FFCEC8"/>
<path d="M409.247 152.218L416.86 141.678L434.442 153.098L432.066 145.243L455.061 145.309C457.459 152.944 458.406 160.448 457.767 167.842C457.701 168.656 457.393 169.448 456.931 170.13C451.232 178.36 439.591 179.702 432.176 172.969L409.247 152.218Z" fill="#384B61"/>
<path d="M409.401 151.932L406.936 149.775L415.078 140.401L416.861 141.678L409.401 151.932Z" fill="white"/>
<path d="M443.266 178.008C446.897 178.008 449.383 176.776 449.559 176.688C449.867 176.534 449.999 176.159 449.845 175.851C449.691 175.543 449.317 175.411 449.009 175.565C448.943 175.609 442.782 178.624 435.894 174.773C428.787 170.812 416.552 157.961 416.42 157.829C416.178 157.587 415.782 157.565 415.54 157.807C415.298 158.049 415.276 158.446 415.518 158.688C416.024 159.216 428.017 171.803 435.3 175.873C438.183 177.524 440.955 178.008 443.266 178.008Z" fill="#212B38"/>
<path d="M435.564 154.133C435.696 154.133 435.828 154.089 435.938 154.001C436.137 153.846 436.247 153.582 436.159 153.318L429.711 131.159C429.623 130.829 429.271 130.631 428.941 130.741C428.611 130.829 428.413 131.181 428.523 131.512L434.508 152.086L418.951 142.272C418.665 142.096 418.269 142.184 418.093 142.47C417.916 142.756 418.004 143.152 418.291 143.328L435.256 154.023C435.344 154.111 435.454 154.133 435.564 154.133Z" fill="#212B38"/>
<path d="M373.929 119.21L372.807 117.868L363.939 121.301L364.995 123.061L373.929 119.21Z" fill="white"/>
<path d="M476.252 29.7826L427.599 2.6286C421.768 -0.628125 414.396 1.46234 411.139 7.29364L400.533 26.2839C397.276 32.1152 399.367 39.4868 405.198 42.7435L434.993 59.3792L436.819 68.5993C437.281 70.8878 439.658 72.2081 441.836 71.3939L450.638 68.1152L453.851 69.8976C459.682 73.1543 467.054 71.0638 470.31 65.2325L480.917 46.2423C484.174 40.389 482.083 33.0394 476.252 29.7826Z" fill="white"/>
<path d="M440.538 72.7143C439.724 72.7143 438.91 72.5162 438.161 72.0981C436.907 71.394 436.027 70.2057 435.763 68.7974L434.025 60.0835L404.67 43.7118C398.311 40.169 396.022 32.1152 399.587 25.7558L410.193 6.7656C413.736 0.406188 421.79 -1.88232 428.149 1.68247L476.824 28.8365C479.905 30.5529 482.127 33.3695 483.095 36.7583C484.064 40.147 483.646 43.7118 481.929 46.7925L471.323 65.7827C467.78 72.1421 459.726 74.4306 453.367 70.8658L450.594 69.3255L442.254 72.4282C441.682 72.6262 441.11 72.7143 440.538 72.7143ZM421.724 2.18858C417.873 2.18858 414.11 4.21303 412.108 7.82184L401.501 26.8121C398.553 32.1152 400.445 38.8267 405.748 41.7754L435.543 58.4111C435.829 58.5651 436.027 58.8512 436.093 59.1592L437.919 68.3793C438.073 69.1495 438.558 69.8096 439.24 70.1837C439.922 70.5578 440.736 70.6238 441.462 70.3597L450.264 67.081C450.572 66.971 450.902 66.993 451.188 67.147L454.401 68.9294C459.704 71.8781 466.416 69.9856 469.364 64.6825L479.971 45.6923C481.401 43.1177 481.753 40.169 480.939 37.3304C480.147 34.5138 478.276 32.1592 475.724 30.7289L427.049 3.57489C425.377 2.62868 423.528 2.18858 421.724 2.18858Z" fill="#FF6600" fill-opacity="0.08"/>
<path d="M422.626 16.2495L466.482 40.7189L422.626 16.2495Z" fill="white"/>
<path d="M466.482 41.8192C466.306 41.8192 466.108 41.7752 465.954 41.6871L422.098 17.1957C421.57 16.9096 421.372 16.2275 421.68 15.6994C421.966 15.1712 422.648 14.9732 423.176 15.2813L467.032 39.7507C467.56 40.0368 467.758 40.7189 467.45 41.247C467.23 41.5991 466.856 41.8192 466.482 41.8192Z" fill="#FF6600" fill-opacity="0.08"/>
<path d="M418.973 22.7848L462.829 47.2543L418.973 22.7848Z" fill="white"/>
<path d="M462.829 48.3546C462.653 48.3546 462.455 48.3106 462.3 48.2226L418.445 23.7531C417.917 23.4671 417.719 22.7849 418.027 22.2568C418.313 21.7287 418.995 21.5306 419.523 21.8387L463.379 46.3081C463.907 46.5942 464.105 47.2764 463.797 47.8045C463.577 48.1565 463.203 48.3546 462.829 48.3546Z" fill="#FF6600" fill-opacity="0.08"/>
<path d="M415.32 29.3204L441.396 43.8657L415.32 29.3204Z" fill="white"/>
<path d="M441.396 44.966C441.22 44.966 441.022 44.922 440.868 44.8339L414.792 30.2887C414.264 30.0026 414.066 29.3205 414.374 28.7924C414.66 28.2643 415.342 28.0662 415.87 28.3743L441.946 42.9195C442.474 43.2056 442.672 43.8877 442.364 44.4159C442.144 44.7679 441.77 44.966 441.396 44.966Z" fill="#FF6600" fill-opacity="0.08"/>
<path d="M538.9 370.11H1.10024C0.484108 370.11 0 369.626 0 369.01C0 368.394 0.484108 367.91 1.10024 367.91H538.9C539.516 367.91 540 368.394 540 369.01C540 369.626 539.516 370.11 538.9 370.11Z" fill="#FF6600" fill-opacity="0.08"/>
</svg>
