<svg width="40" height="40" viewBox="0 0 40 40" fill="none" xmlns="http://www.w3.org/2000/svg">
<circle cx="20" cy="20" r="20" fill="#FF8D5B"/>
<path d="M37 20C37 29.3888 29.3888 37 20 37C10.6112 37 3 29.3888 3 20C3 10.6112 10.6112 3 20 3C29.3888 3 37 10.6112 37 20Z" fill="#FF7235"/>
<path d="M14.4492 14.8984V28H10.875V14.8984H14.4492ZM12.668 9.76562C13.1992 9.76562 13.6562 9.89062 14.0391 10.1406C14.4219 10.3828 14.6133 10.8398 14.6133 11.5117C14.6133 12.1758 14.4219 12.6367 14.0391 12.8945C13.6562 13.1445 13.1992 13.2695 12.668 13.2695C12.1289 13.2695 11.668 13.1445 11.2852 12.8945C10.9102 12.6367 10.7227 12.1758 10.7227 11.5117C10.7227 10.8398 10.9102 10.3828 11.2852 10.1406C11.668 9.89062 12.1289 9.76562 12.668 9.76562ZM25.6523 14.6523C27.0508 14.6523 28.1758 15.0352 29.0273 15.8008C29.8789 16.5586 30.3047 17.7773 30.3047 19.457V28H26.7305V20.3477C26.7305 19.4102 26.5586 18.7031 26.2148 18.2266C25.8789 17.75 25.3477 17.5117 24.6211 17.5117C23.5273 17.5117 22.7812 17.8828 22.3828 18.625C21.9844 19.3672 21.7852 20.4375 21.7852 21.8359V28H18.2109V14.8984H20.9414L21.4219 16.5742H21.6211C21.9023 16.1211 22.25 15.7539 22.6641 15.4727C23.0859 15.1914 23.5508 14.9844 24.0586 14.8516C24.5742 14.7188 25.1055 14.6523 25.6523 14.6523Z" fill="white"/>
</svg>
