<svg width="94" height="40" viewBox="0 0 94 40" fill="none" xmlns="http://www.w3.org/2000/svg">
<circle cx="20" cy="20" r="20" fill="#FF7235"/>
<circle cx="20" cy="20" r="20" fill="#FF8D5B"/>
<circle cx="20" cy="20" r="20" fill="#FF8D5B"/>
<path d="M51.9277 24.6309C51.9277 25.417 51.7293 26.0796 51.3325 26.6187C50.9432 27.1502 50.3817 27.5508 49.6479 27.8203C48.9217 28.0898 48.0532 28.2246 47.0425 28.2246C46.1815 28.2246 45.4365 28.1572 44.8076 28.0225C44.1787 27.8877 43.6284 27.6968 43.1567 27.4497V25.7314C43.6584 25.9785 44.2573 26.2031 44.9536 26.4053C45.6499 26.6074 46.3612 26.7085 47.0874 26.7085C48.1506 26.7085 48.9217 26.5363 49.4009 26.1919C49.88 25.8475 50.1196 25.3796 50.1196 24.7881C50.1196 24.4512 50.0223 24.1554 49.8276 23.9009C49.6405 23.6388 49.3223 23.388 48.873 23.1484C48.4238 22.9014 47.8024 22.6318 47.0088 22.3398C46.2227 22.0404 45.5413 21.7446 44.9648 21.4526C44.3958 21.1532 43.9541 20.79 43.6396 20.3633C43.3327 19.9365 43.1792 19.3825 43.1792 18.7012C43.1792 17.6605 43.5985 16.8631 44.437 16.3091C45.283 15.7476 46.3911 15.4668 47.7612 15.4668C48.5024 15.4668 49.195 15.5417 49.8389 15.6914C50.4902 15.8337 51.0967 16.0283 51.6582 16.2754L51.0293 17.769C50.5202 17.5519 49.9774 17.3685 49.4009 17.2188C48.8244 17.069 48.2367 16.9941 47.6377 16.9941C46.7767 16.9941 46.1141 17.1364 45.6499 17.4209C45.1932 17.7054 44.9648 18.0947 44.9648 18.5889C44.9648 18.9707 45.0697 19.2852 45.2793 19.5322C45.4964 19.7793 45.8408 20.0114 46.3125 20.2285C46.7842 20.4456 47.4056 20.7002 48.1768 20.9922C48.9479 21.2767 49.6143 21.5724 50.1758 21.8794C50.7373 22.1789 51.1678 22.5457 51.4673 22.98C51.7743 23.4067 51.9277 23.957 51.9277 24.6309ZM56.7905 15.6914V28H54.9263V15.6914H56.7905ZM55.8809 11.0869C56.1878 11.0869 56.4499 11.188 56.667 11.3901C56.8916 11.5848 57.0039 11.8918 57.0039 12.311C57.0039 12.7228 56.8916 13.0298 56.667 13.2319C56.4499 13.4341 56.1878 13.5352 55.8809 13.5352C55.5589 13.5352 55.2894 13.4341 55.0723 13.2319C54.8626 13.0298 54.7578 12.7228 54.7578 12.311C54.7578 11.8918 54.8626 11.5848 55.0723 11.3901C55.2894 11.188 55.5589 11.0869 55.8809 11.0869ZM64.1802 33.5254C62.563 33.5254 61.3164 33.2222 60.4404 32.6157C59.5645 32.0168 59.1265 31.1745 59.1265 30.0889C59.1265 29.3177 59.3698 28.6589 59.8564 28.1123C60.3506 27.5658 61.0319 27.2026 61.9004 27.0229C61.5785 26.8732 61.3014 26.6486 61.0693 26.3491C60.8447 26.0496 60.7324 25.7052 60.7324 25.3159C60.7324 24.8667 60.856 24.4736 61.103 24.1367C61.3576 23.7923 61.7432 23.4629 62.2598 23.1484C61.6159 22.8864 61.0918 22.4447 60.6875 21.8232C60.2907 21.1943 60.0923 20.4644 60.0923 19.6333C60.0923 18.7498 60.2757 17.9974 60.6426 17.376C61.0094 16.7471 61.541 16.2679 62.2373 15.9385C62.9336 15.609 63.7759 15.4443 64.7642 15.4443C64.9813 15.4443 65.1984 15.4556 65.4155 15.478C65.6401 15.493 65.8535 15.5192 66.0557 15.5566C66.2578 15.5866 66.4338 15.624 66.5835 15.6689H70.8062V16.8706L68.5376 17.1514C68.7622 17.4434 68.9494 17.7952 69.0991 18.207C69.2489 18.6188 69.3237 19.0755 69.3237 19.5771C69.3237 20.805 68.9082 21.7821 68.0771 22.5083C67.2461 23.2271 66.1043 23.5864 64.6519 23.5864C64.3075 23.5864 63.9556 23.5565 63.5962 23.4966C63.2293 23.6987 62.9486 23.9233 62.7539 24.1704C62.5667 24.4175 62.4731 24.702 62.4731 25.0239C62.4731 25.2635 62.5443 25.4544 62.6865 25.5967C62.8363 25.7389 63.0496 25.8438 63.3267 25.9111C63.6037 25.971 63.9368 26.001 64.3262 26.001H66.4937C67.8338 26.001 68.8595 26.2817 69.5708 26.8433C70.2896 27.4048 70.6489 28.2246 70.6489 29.3027C70.6489 30.6654 70.0949 31.7098 68.9868 32.436C67.8787 33.1623 66.2765 33.5254 64.1802 33.5254ZM64.2363 32.0654C65.2546 32.0654 66.0968 31.9606 66.7632 31.751C67.437 31.5488 67.9386 31.2531 68.2681 30.8638C68.605 30.4819 68.7734 30.0252 68.7734 29.4937C68.7734 28.9995 68.6611 28.6252 68.4365 28.3706C68.2119 28.1235 67.8825 27.9588 67.4482 27.8765C67.014 27.7866 66.4824 27.7417 65.8535 27.7417H63.7197C63.1657 27.7417 62.6828 27.8278 62.271 28C61.8592 28.1722 61.541 28.4268 61.3164 28.7637C61.0993 29.1006 60.9907 29.5199 60.9907 30.0215C60.9907 30.6878 61.2715 31.1932 61.833 31.5376C62.3945 31.8895 63.1956 32.0654 64.2363 32.0654ZM64.7192 22.2275C65.6102 22.2275 66.2803 22.0029 66.7295 21.5537C67.1787 21.1045 67.4033 20.4494 67.4033 19.5884C67.4033 18.6675 67.175 17.9787 66.7183 17.522C66.2616 17.0578 65.5877 16.8257 64.6968 16.8257C63.8433 16.8257 63.1844 17.0653 62.7202 17.5444C62.2635 18.0161 62.0352 18.7087 62.0352 19.6221C62.0352 20.4606 62.2673 21.1045 62.7314 21.5537C63.1956 22.0029 63.8582 22.2275 64.7192 22.2275ZM75.0962 10.5254V15.7476C75.0962 16.047 75.0887 16.3503 75.0737 16.6572C75.0588 16.9567 75.0326 17.2337 74.9951 17.4883H75.1187C75.3732 17.054 75.6951 16.6909 76.0845 16.3989C76.4813 16.0994 76.9305 15.8748 77.4321 15.7251C77.9338 15.5679 78.4653 15.4893 79.0269 15.4893C80.0151 15.4893 80.8387 15.6465 81.4976 15.9609C82.1639 16.2754 82.6618 16.762 82.9912 17.4209C83.3281 18.0798 83.4966 18.9333 83.4966 19.9814V28H81.6548V20.105C81.6548 19.0793 81.4189 18.3118 80.9473 17.8027C80.4831 17.2936 79.7681 17.0391 78.8022 17.0391C77.8888 17.0391 77.1589 17.215 76.6123 17.5669C76.0732 17.9113 75.6839 18.4204 75.4443 19.0942C75.2122 19.7681 75.0962 20.5916 75.0962 21.5649V28H73.2319V10.5254H75.0962ZM91.313 26.6973C91.62 26.6973 91.9344 26.6711 92.2563 26.6187C92.5783 26.5662 92.8403 26.5026 93.0425 26.4277V27.8765C92.8254 27.9738 92.5221 28.0562 92.1328 28.1235C91.751 28.1909 91.3766 28.2246 91.0098 28.2246C90.3584 28.2246 89.7669 28.1123 89.2354 27.8877C88.7038 27.6556 88.277 27.2663 87.9551 26.7197C87.6406 26.1732 87.4834 25.417 87.4834 24.4512V17.1514H85.7314V16.2417L87.4946 15.5117L88.2358 12.8389H89.3589V15.6914H92.9639V17.1514H89.3589V24.395C89.3589 25.1662 89.5348 25.7427 89.8867 26.1245C90.2461 26.5063 90.7215 26.6973 91.313 26.6973Z" fill="#292830"/>
<path d="M37 20C37 29.3888 29.3888 37 20 37C10.6112 37 3 29.3888 3 20C3 10.6112 10.6112 3 20 3C29.3888 3 37 10.6112 37 20Z" fill="#FF7235"/>
<path d="M14.4492 14.8984V28H10.875V14.8984H14.4492ZM12.668 9.76562C13.1992 9.76562 13.6562 9.89062 14.0391 10.1406C14.4219 10.3828 14.6133 10.8398 14.6133 11.5117C14.6133 12.1758 14.4219 12.6367 14.0391 12.8945C13.6562 13.1445 13.1992 13.2695 12.668 13.2695C12.1289 13.2695 11.668 13.1445 11.2852 12.8945C10.9102 12.6367 10.7227 12.1758 10.7227 11.5117C10.7227 10.8398 10.9102 10.3828 11.2852 10.1406C11.668 9.89062 12.1289 9.76562 12.668 9.76562ZM25.6523 14.6523C27.0508 14.6523 28.1758 15.0352 29.0273 15.8008C29.8789 16.5586 30.3047 17.7773 30.3047 19.457V28H26.7305V20.3477C26.7305 19.4102 26.5586 18.7031 26.2148 18.2266C25.8789 17.75 25.3477 17.5117 24.6211 17.5117C23.5273 17.5117 22.7812 17.8828 22.3828 18.625C21.9844 19.3672 21.7852 20.4375 21.7852 21.8359V28H18.2109V14.8984H20.9414L21.4219 16.5742H21.6211C21.9023 16.1211 22.25 15.7539 22.6641 15.4727C23.0859 15.1914 23.5508 14.9844 24.0586 14.8516C24.5742 14.7188 25.1055 14.6523 25.6523 14.6523Z" fill="white"/>
</svg>
